<svg width="236" height="26" viewBox="0 0 236 26" fill="none" xmlns="http://www.w3.org/2000/svg">
<path fill-rule="evenodd" clip-rule="evenodd" d="M75.6511 23.3035C75.6511 23.8104 75.3957 24.0638 74.885 24.0638H65.8882C65.6709 24.0638 65.4943 24.0004 65.3585 23.8737C65.2226 23.747 65.1547 23.5679 65.1547 23.3365C65.1547 23.1382 65.2009 22.9784 65.2933 22.8572C65.3856 22.736 65.5296 22.6368 65.7252 22.5597L66.426 22.3448C66.5999 22.2897 66.7357 22.185 66.8335 22.0307C66.9313 21.8765 66.9802 21.6561 66.9802 21.3696V11.8159C66.9802 11.6616 66.9422 11.5321 66.8661 11.4274C66.79 11.3228 66.6488 11.2263 66.4423 11.1382L65.497 10.8241C65.2471 10.7029 65.0678 10.5734 64.9592 10.4357C64.8505 10.298 64.7962 10.1299 64.7962 9.93157C64.7962 9.73323 64.8641 9.57069 64.9999 9.44397L65.0533 9.39942C65.1834 9.3024 65.353 9.25389 65.5622 9.25389H66.9924L66.9812 9.1573C66.9506 8.96411 66.8742 8.77868 66.752 8.60099C66.589 8.36408 66.4043 8.09686 66.1979 7.79934C65.9914 7.50182 65.8067 7.14645 65.6437 6.73323C65.4807 6.32 65.3992 5.81036 65.3992 5.2043C65.3992 3.76077 65.8882 2.6065 66.8661 1.74149C67.844 0.876477 69.2348 0.44397 71.0386 0.44397C72.2012 0.44397 73.1655 0.631298 73.9316 1.00595C74.6976 1.38061 75.2708 1.87923 75.6511 2.50182C76.0314 3.12441 76.2215 3.80485 76.2215 4.54314C76.2215 5.41367 75.9961 6.06656 75.5451 6.50182C75.0942 6.93708 74.5156 7.15471 73.8093 7.15471C73.027 7.15471 72.3968 6.90127 71.9187 6.39438C71.4406 5.8875 71.2015 5.21532 71.2015 4.37785V2.90678C71.2015 2.5211 71.1255 2.23736 70.9734 2.05554C70.8212 1.87372 70.5876 1.78281 70.2725 1.78281C69.8705 1.78281 69.5662 1.92055 69.3598 2.19604C69.1533 2.47152 69.0501 2.86821 69.0501 3.38612C69.0501 3.91504 69.1724 4.41091 69.4168 4.87372C69.6613 5.33653 69.9628 5.76904 70.3214 6.17124C70.68 6.57345 71.0386 6.95912 71.3971 7.32827C71.7557 7.69741 72.0572 8.06105 72.3017 8.41918L72.3714 8.52653C72.5034 8.74108 72.5914 8.95463 72.6354 9.16719L72.6503 9.25389H75.0643C75.3142 9.25389 75.5071 9.30623 75.6429 9.41091C75.7788 9.51559 75.8467 9.67813 75.8467 9.89851C75.8467 10.2291 75.7054 10.4991 75.4229 10.7084C75.1404 10.9178 74.6949 11.0225 74.0864 11.0225H72.9292V21.32C72.9292 21.6285 72.9754 21.8655 73.0677 22.0307C73.1601 22.196 73.3095 22.2952 73.516 22.3283L74.9176 22.5431C75.1676 22.5762 75.3523 22.6561 75.4718 22.7828C75.5913 22.9095 75.6511 23.0831 75.6511 23.3035ZM43.559 23.6836C42.5811 24.1575 41.4402 24.3944 40.1363 24.3944C38.7563 24.3944 37.5203 24.1024 36.4283 23.5183C35.3363 22.9343 34.4752 22.0886 33.845 20.9812C33.2148 19.8737 32.8997 18.5266 32.8997 16.9398C32.8997 15.4082 33.2283 14.039 33.8857 12.8324C34.5431 11.6258 35.4586 10.6726 36.6321 9.97289C37.8056 9.27317 39.1746 8.92331 40.7393 8.92331C42.0758 8.92331 43.2031 9.12166 44.1213 9.51835C45.0395 9.91504 45.7403 10.4522 46.2238 11.1299C46.7074 11.8076 46.9491 12.5652 46.9491 13.4026C46.9491 14.2842 46.6965 14.9756 46.1912 15.477C45.686 15.9784 44.9987 16.2291 44.1294 16.2291C43.2385 16.2291 42.5621 15.9729 42.1003 15.4605C41.6385 14.9481 41.4076 14.2456 41.4076 13.3531V12.2952C41.4076 11.7553 41.3098 11.3476 41.1142 11.0721C40.9186 10.7966 40.6415 10.6588 40.283 10.6588C39.9244 10.6588 39.6011 10.8049 39.3132 11.0969C39.0252 11.3889 38.8025 11.8269 38.6449 12.4109C38.4874 12.9949 38.4086 13.7167 38.4086 14.5762C38.4086 15.8104 38.5906 16.8462 38.9546 17.6836C39.3186 18.5211 39.8157 19.1492 40.4459 19.5679C41.0762 19.9867 41.7933 20.196 42.5974 20.196C43.4014 20.196 44.0751 20.0776 44.6184 19.8407C45.1617 19.6038 45.58 19.2043 45.8734 18.6423C46.0364 18.488 46.1641 18.3889 46.2564 18.3448C46.3488 18.3007 46.4384 18.2787 46.5254 18.2787C46.634 18.2897 46.7237 18.342 46.7943 18.4357C46.8649 18.5294 46.8948 18.6754 46.8839 18.8737C46.797 19.9536 46.4656 20.9068 45.8897 21.7332C45.3138 22.5597 44.5369 23.2098 43.559 23.6836ZM60.1266 23.3531C58.9042 24.0252 57.4835 24.3613 55.8645 24.3613C54.289 24.3613 52.9063 24.0335 51.7165 23.3779C50.5267 22.7222 49.6004 21.8159 48.9376 20.6588C48.2747 19.5018 47.9433 18.163 47.9433 16.6423C47.9433 15.1878 48.291 13.8792 48.9865 12.7167C49.6819 11.5542 50.6435 10.6313 51.8713 9.9481C53.0991 9.26491 54.5117 8.92331 56.109 8.92331C57.6954 8.92331 59.0808 9.25389 60.2651 9.91504C61.4495 10.5762 62.3731 11.4908 63.0359 12.6588C63.6987 13.8269 64.0301 15.1768 64.0301 16.7084C64.0301 18.163 63.6851 19.466 62.9952 20.6175C62.3052 21.769 61.349 22.6809 60.1266 23.3531ZM57.1032 22.6423C56.7664 22.7084 56.4377 22.5597 56.1171 22.196C55.7966 21.8324 55.4923 21.2208 55.2044 20.3613C54.9165 19.5018 54.6421 18.3723 54.3813 16.9729C54.1314 15.5734 53.9901 14.4219 53.9575 13.5183C53.9249 12.6148 53.9901 11.9316 54.1531 11.4688C54.3161 11.006 54.566 10.736 54.9029 10.6588C55.2397 10.5927 55.5684 10.7415 55.8889 11.1051C56.2095 11.4688 56.5164 12.0803 56.8098 12.9398C57.1032 13.7993 57.3803 14.9288 57.641 16.3283C57.9018 17.7277 58.0458 18.882 58.073 19.7911C58.1001 20.7002 58.0295 21.3861 57.8611 21.8489C57.6927 22.3117 57.44 22.5762 57.1032 22.6423ZM86.2615 24.0638C86.7722 24.0638 87.0276 23.8104 87.0276 23.3035C87.0276 23.0831 86.9678 22.9095 86.8483 22.7828C86.7288 22.6561 86.544 22.5762 86.2941 22.5431L84.8924 22.3283C84.686 22.2952 84.5366 22.196 84.4442 22.0307C84.3519 21.8655 84.3057 21.6285 84.3057 21.32V11.0225H85.4629C86.0714 11.0225 86.5169 10.9178 86.7994 10.7084C87.0819 10.4991 87.2231 10.2291 87.2231 9.89851C87.2231 9.67813 87.1552 9.51559 87.0194 9.41091C86.8836 9.30623 86.6907 9.25389 86.4408 9.25389H84.0268L84.0119 9.16719C83.9679 8.95463 83.8799 8.74108 83.7479 8.52653L83.6782 8.41918C83.4337 8.06105 83.1322 7.69741 82.7736 7.32827C82.415 6.95912 82.0565 6.57345 81.6979 6.17124C81.3393 5.76904 81.0378 5.33653 80.7933 4.87372C80.5488 4.41091 80.4266 3.91504 80.4266 3.38612C80.4266 2.86821 80.5298 2.47152 80.7363 2.19604C80.9427 1.92055 81.247 1.78281 81.649 1.78281C81.9641 1.78281 82.1977 1.87372 82.3498 2.05554C82.502 2.23736 82.578 2.5211 82.578 2.90678V4.37785C82.578 5.21532 82.8171 5.8875 83.2952 6.39438C83.7733 6.90127 84.4035 7.15471 85.1858 7.15471C85.8921 7.15471 86.4707 6.93708 86.9216 6.50182C87.3725 6.06656 87.598 5.41367 87.598 4.54314C87.598 3.80485 87.4079 3.12441 87.0276 2.50182C86.6473 1.87923 86.0741 1.38061 85.308 1.00595C84.542 0.631298 83.5777 0.44397 82.415 0.44397C80.6113 0.44397 79.2205 0.876477 78.2426 1.74149C77.2647 2.6065 76.7757 3.76077 76.7757 5.2043C76.7757 5.81036 76.8572 6.32 77.0202 6.73323C77.1832 7.14645 77.3679 7.50182 77.5743 7.79934C77.7808 8.09686 77.9655 8.36408 78.1285 8.60099C78.2507 8.77868 78.3271 8.96411 78.3577 9.1573L78.3689 9.25389H76.9387C76.7295 9.25389 76.5599 9.3024 76.4297 9.39942L76.3764 9.44397C76.2406 9.57069 76.1726 9.73323 76.1726 9.93157C76.1726 10.1299 76.227 10.298 76.3356 10.4357C76.4443 10.5734 76.6236 10.7029 76.8735 10.8241L77.8188 11.1382C78.0253 11.2263 78.1665 11.3228 78.2426 11.4274C78.3186 11.5321 78.3567 11.6616 78.3567 11.8159V21.3696C78.3567 21.6561 78.3078 21.8765 78.21 22.0307C78.1122 22.185 77.9764 22.2897 77.8025 22.3448L77.1017 22.5597C76.9061 22.6368 76.7621 22.736 76.6698 22.8572C76.5774 22.9784 76.5312 23.1382 76.5312 23.3365C76.5312 23.5679 76.5991 23.747 76.7349 23.8737C76.8708 24.0004 77.0473 24.0638 77.2647 24.0638H86.2615ZM99.0234 23.5845C97.9694 24.1244 96.7524 24.3944 95.3725 24.3944C93.8513 24.3944 92.5148 24.0776 91.363 23.444C90.2112 22.8104 89.3121 21.9233 88.6656 20.7828C88.0191 19.6423 87.6958 18.3228 87.6958 16.8241C87.6958 15.2484 88.0082 13.8682 88.633 12.6836C89.2578 11.4991 90.1623 10.5762 91.3467 9.91504C92.5311 9.25389 93.9545 8.92331 95.617 8.92331C97.0295 8.92331 98.2465 9.20155 99.2679 9.75802C100.289 10.3145 101.074 11.0693 101.623 12.0225C102.172 12.9756 102.446 14.0363 102.446 15.2043C102.446 15.7112 102.31 16.1106 102.039 16.4026L101.974 16.4674C101.706 16.7163 101.337 16.8407 100.865 16.8407H93.4144L93.4304 16.9169C93.628 17.8244 93.9657 18.551 94.4435 19.0969C95.2584 20.028 96.345 20.4936 97.7032 20.4936C98.5725 20.4936 99.3412 20.2952 100.009 19.8985C100.678 19.5018 101.126 18.9509 101.354 18.2456C101.484 18.1024 101.601 18.006 101.705 17.9564C101.808 17.9068 101.897 17.882 101.973 17.882C102.082 17.882 102.174 17.9261 102.251 18.0142C102.327 18.1024 102.365 18.2511 102.365 18.4605C102.365 19.5404 102.071 20.5294 101.484 21.4274C100.898 22.3255 100.077 23.0445 99.0234 23.5845ZM93.2443 15.5157C93.2288 15.2621 93.2211 14.9985 93.2211 14.725C93.2211 13.6891 93.2971 12.8737 93.4492 12.2787C93.6014 11.6836 93.7969 11.2622 94.036 11.0142C94.275 10.7663 94.5412 10.6423 94.8346 10.6423C95.2149 10.6423 95.5708 10.9674 95.9022 11.6175C96.2336 12.2677 96.3993 13.3476 96.3993 14.8572C96.3993 15.32 96.1928 15.5514 95.7799 15.5514H93.2464L93.2443 15.5157ZM114.605 23.5845C113.551 24.1244 112.334 24.3944 110.954 24.3944C109.433 24.3944 108.096 24.0776 106.945 23.444C105.793 22.8104 104.894 21.9233 104.247 20.7828C103.601 19.6423 103.277 18.3228 103.277 16.8241C103.277 15.2484 103.59 13.8682 104.215 12.6836C104.839 11.4991 105.744 10.5762 106.928 9.91504C108.113 9.25389 109.536 8.92331 111.198 8.92331C112.611 8.92331 113.828 9.20155 114.849 9.75802C115.871 10.3145 116.656 11.0693 117.205 12.0225C117.753 12.9756 118.028 14.0363 118.028 15.2043C118.028 15.7112 117.892 16.1106 117.62 16.4026L117.555 16.4674C117.288 16.7163 116.918 16.8407 116.447 16.8407H108.996L109.012 16.9169C109.21 17.8244 109.547 18.551 110.025 19.0969C110.84 20.028 111.926 20.4936 113.285 20.4936C114.154 20.4936 114.923 20.2952 115.591 19.8985C116.259 19.5018 116.707 18.9509 116.936 18.2456C117.066 18.1024 117.183 18.006 117.286 17.9564C117.389 17.9068 117.479 17.882 117.555 17.882C117.664 17.882 117.756 17.9261 117.832 18.0142C117.908 18.1024 117.946 18.2511 117.946 18.4605C117.946 19.5404 117.653 20.5294 117.066 21.4274C116.479 22.3255 115.659 23.0445 114.605 23.5845ZM108.826 15.5157C108.81 15.2621 108.803 14.9985 108.803 14.725C108.803 13.6891 108.879 12.8737 109.031 12.2787C109.183 11.6836 109.378 11.2622 109.618 11.0142C109.857 10.7663 110.123 10.6423 110.416 10.6423C110.796 10.6423 111.152 10.9674 111.484 11.6175C111.815 12.2677 111.981 13.3476 111.981 14.8572C111.981 15.32 111.774 15.5514 111.361 15.5514H108.828L108.826 15.5157ZM128.5 23.8572C128.364 23.9949 128.165 24.0638 127.905 24.0638H119.755C119.516 24.0638 119.329 23.9977 119.193 23.8655C119.057 23.7332 118.989 23.5514 118.989 23.32C118.989 23.1437 119.03 22.9977 119.111 22.882C119.193 22.7663 119.304 22.6588 119.446 22.5597L119.82 22.4109C119.962 22.3448 120.06 22.2401 120.114 22.0969C120.168 21.9536 120.195 21.7167 120.195 21.3861V12.9894C120.195 12.725 120.165 12.5349 120.106 12.4192C120.046 12.3035 119.945 12.2126 119.804 12.1464L119.38 12.0969C119.228 12.0087 119.117 11.915 119.046 11.8159C118.976 11.7167 118.94 11.59 118.94 11.4357C118.94 11.2594 118.995 11.1024 119.103 10.9646C119.212 10.8269 119.397 10.7084 119.658 10.6093L124.286 9.27042C124.558 9.16022 124.786 9.08309 124.971 9.03901C125.156 8.99493 125.313 8.9729 125.444 8.9729C125.628 8.9729 125.767 9.03901 125.859 9.17124L125.889 9.2192C125.965 9.35741 126.018 9.57834 126.047 9.88199L126.171 12.4504L126.199 12.3556C126.254 12.1767 126.315 12.005 126.381 11.8407C126.777 10.8544 127.302 10.1217 127.954 9.64232C128.605 9.16298 129.317 8.92331 130.089 8.92331C131.023 8.92331 131.74 9.23736 132.24 9.86546C132.74 10.4936 132.99 11.4467 132.99 12.725C132.99 13.9922 132.729 14.9233 132.207 15.5183C131.686 16.1134 131.012 16.4109 130.186 16.4109C129.382 16.4109 128.787 16.2071 128.402 15.7993C128.016 15.3916 127.812 14.8131 127.791 14.0638L127.774 13.4026C127.763 13.1492 127.714 12.9509 127.628 12.8076C127.541 12.6644 127.399 12.5927 127.204 12.5927C127.008 12.5927 126.837 12.6947 126.69 12.8985C126.544 13.1024 126.432 13.4137 126.356 13.8324C126.28 14.2511 126.242 14.7856 126.242 15.4357V21.2539C126.242 21.5624 126.291 21.8076 126.389 21.9894C126.487 22.1712 126.639 22.2842 126.845 22.3283L128.068 22.5762C128.296 22.6093 128.459 22.6947 128.557 22.8324C128.654 22.9701 128.703 23.1327 128.703 23.32C128.703 23.5404 128.635 23.7195 128.5 23.8572ZM141.53 24.3613C143.149 24.3613 144.57 24.0252 145.792 23.3531C147.015 22.6809 147.971 21.769 148.661 20.6175C149.351 19.466 149.696 18.163 149.696 16.7084C149.696 15.1768 149.365 13.8269 148.702 12.6588C148.039 11.4908 147.115 10.5762 145.931 9.91504C144.747 9.25389 143.361 8.92331 141.775 8.92331C140.178 8.92331 138.765 9.26491 137.537 9.9481C136.309 10.6313 135.348 11.5542 134.652 12.7167C133.957 13.8792 133.609 15.1878 133.609 16.6423C133.609 18.163 133.941 19.5018 134.603 20.6588C135.266 21.8159 136.193 22.7222 137.382 23.3779C138.572 24.0335 139.955 24.3613 141.53 24.3613ZM141.783 22.196C142.104 22.5597 142.432 22.7084 142.769 22.6423C143.106 22.5762 143.358 22.3117 143.527 21.8489C143.695 21.3861 143.766 20.7002 143.739 19.7911C143.712 18.882 143.568 17.7277 143.307 16.3283C143.046 14.9288 142.769 13.7993 142.476 12.9398C142.182 12.0803 141.875 11.4688 141.555 11.1051C141.234 10.7415 140.906 10.5927 140.569 10.6588C140.232 10.736 139.982 11.006 139.819 11.4688C139.656 11.9316 139.591 12.6148 139.623 13.5183C139.656 14.4219 139.797 15.5734 140.047 16.9729C140.308 18.3723 140.582 19.5018 140.87 20.3613C141.158 21.2208 141.462 21.8324 141.783 22.196ZM162.621 24.3944C163.534 24.3944 164.283 24.2263 164.87 23.8903C165.457 23.5542 165.894 23.1547 166.182 22.6919C166.47 22.2291 166.614 21.8049 166.614 21.4192C166.614 21.2539 166.579 21.1161 166.508 21.006C166.437 20.8958 166.342 20.8407 166.223 20.8407C166.168 20.8407 166.12 20.8517 166.076 20.8737C166.033 20.8958 165.995 20.9288 165.962 20.9729C165.908 21.1712 165.824 21.309 165.709 21.3861C165.595 21.4633 165.473 21.5018 165.343 21.5018C165.158 21.5018 165.019 21.4385 164.927 21.3117C164.835 21.185 164.789 21.017 164.789 20.8076V13.5018C164.789 12.0473 164.297 10.9206 163.314 10.1217C162.33 9.32276 160.79 8.92331 158.693 8.92331C157.063 8.92331 155.702 9.12716 154.61 9.53488C153.518 9.94259 152.698 10.4633 152.149 11.0969C151.6 11.7305 151.326 12.3779 151.326 13.039C151.326 13.7442 151.53 14.2814 151.937 14.6506C152.345 15.0197 152.934 15.2043 153.705 15.2043C154.651 15.2043 155.395 14.9481 155.938 14.4357C156.482 13.9233 156.753 13.2594 156.753 12.444V11.1878C156.753 10.8792 156.848 10.6396 157.039 10.4688C157.229 10.298 157.465 10.2126 157.748 10.2126C158.052 10.2126 158.294 10.3255 158.473 10.5514C158.652 10.7773 158.742 11.0831 158.742 11.4688L158.741 16.2869L158.655 16.2681C158.392 16.2175 158.089 16.1885 157.744 16.1813L157.568 16.1795C155.232 16.1795 153.491 16.5762 152.345 17.3696C151.198 18.163 150.625 19.2704 150.625 20.6919C150.625 21.7718 151.019 22.6588 151.807 23.3531C152.594 24.0473 153.64 24.3944 154.944 24.3944C155.922 24.3944 156.835 24.1933 157.682 23.7911C158.318 23.4894 158.834 23.0932 159.232 22.6025L159.254 22.5739L159.278 22.6479C159.403 23.0051 159.633 23.3252 159.967 23.6081L160.07 23.6919C160.673 24.1602 161.523 24.3944 162.621 24.3944ZM157.006 21.2787C157.272 21.6368 157.623 21.8159 158.057 21.8159L158.15 21.8126C158.336 21.7997 158.515 21.7481 158.688 21.6577L158.741 21.6276V17.3861L158.66 17.3613C158.476 17.3117 158.258 17.2869 158.008 17.2869C157.585 17.2869 157.245 17.4853 156.99 17.882C156.734 18.2787 156.607 18.8627 156.607 19.6341C156.607 20.3723 156.74 20.9206 157.006 21.2787ZM174.111 24.444C176.045 24.444 177.529 23.9977 178.561 23.1051C179.593 22.2126 180.109 20.9949 180.109 19.4522C180.109 18.5156 179.935 17.6947 179.588 16.9894C179.24 16.2842 178.632 15.6588 177.762 15.1134C176.893 14.5679 175.671 14.0528 174.095 13.5679C173.508 13.3806 173.055 13.1905 172.734 12.9977C172.414 12.8049 172.194 12.5982 172.074 12.3779C171.955 12.1575 171.895 11.9206 171.895 11.6671C171.895 11.2925 172.031 10.9894 172.302 10.758C172.574 10.5266 172.976 10.4109 173.508 10.4109C174.247 10.4109 174.945 10.6588 175.603 11.1547C176.26 11.6506 176.985 12.4991 177.779 13.7002C177.985 13.9536 178.191 14.1382 178.398 14.2539C178.604 14.3696 178.8 14.4054 178.985 14.3613C179.213 14.2952 179.354 14.1437 179.408 13.9068C179.463 13.6699 179.452 13.331 179.376 12.8903L178.952 9.84893C178.909 9.52937 178.827 9.30347 178.708 9.17124C178.588 9.03901 178.431 8.9729 178.235 8.9729C178.061 8.9729 177.844 9.0335 177.583 9.15471C177.322 9.27593 177.064 9.39989 176.809 9.52661C176.553 9.65334 176.361 9.7167 176.23 9.7167C176.111 9.7167 175.934 9.65058 175.701 9.51835C175.467 9.38612 175.138 9.25389 174.714 9.12166C174.291 8.98942 173.742 8.92331 173.068 8.92331C171.949 8.92331 170.941 9.12716 170.045 9.53488C169.148 9.94259 168.442 10.5239 167.926 11.2787C167.41 12.0335 167.152 12.9343 167.152 13.9812C167.152 14.9068 167.345 15.7167 167.73 16.4109C168.116 17.1051 168.706 17.7002 169.499 18.196C170.292 18.6919 171.292 19.0941 172.498 19.4026C173.28 19.612 173.88 19.8241 174.299 20.039C174.717 20.2539 175.005 20.488 175.163 20.7415C175.32 20.9949 175.399 21.2759 175.399 21.5845C175.399 21.9922 175.263 22.3283 174.992 22.5927C174.72 22.8572 174.307 22.9894 173.753 22.9894C173.231 22.9894 172.734 22.8765 172.261 22.6506C171.789 22.4247 171.303 22.0363 170.803 21.4853C170.303 20.9343 169.743 20.1795 169.124 19.2208C168.939 18.9674 168.73 18.7911 168.496 18.6919C168.263 18.5927 168.027 18.5982 167.787 18.7084C167.559 18.7966 167.413 18.9839 167.347 19.2704C167.282 19.5569 167.299 19.9095 167.396 20.3283L167.902 23.6175C167.978 23.9481 168.086 24.1685 168.228 24.2787C168.369 24.3889 168.521 24.444 168.684 24.444C168.869 24.444 169.094 24.3834 169.36 24.2622L170.159 23.8985C170.425 23.7773 170.64 23.7167 170.803 23.7167C170.966 23.7167 171.18 23.7773 171.447 23.8985C171.713 24.0197 172.06 24.1409 172.49 24.2622C172.919 24.3834 173.459 24.444 174.111 24.444ZM189.563 23.8241C188.845 24.2043 187.998 24.3944 187.02 24.3944C185.368 24.3944 184.127 23.9922 183.296 23.1878C182.464 22.3834 182.049 21.1161 182.049 19.3861V11.915C182.049 11.6836 182.027 11.5073 181.984 11.3861C181.94 11.2649 181.832 11.1657 181.658 11.0886L180.892 10.8407C180.707 10.7525 180.587 10.6451 180.533 10.5183C180.479 10.3916 180.452 10.2346 180.452 10.0473C180.452 9.81587 180.533 9.62579 180.696 9.47703C180.859 9.32827 181.06 9.25389 181.299 9.25389H182.098C182.196 9.25389 182.299 9.21532 182.407 9.13818C182.516 9.06105 182.663 8.90678 182.847 8.67537L185.863 6.14645C186.08 5.88199 186.297 5.68088 186.515 5.54314C186.732 5.4054 186.949 5.33653 187.167 5.33653C187.417 5.33653 187.612 5.41367 187.753 5.56794L187.798 5.62262C187.909 5.77717 187.965 6.00136 187.965 6.29521L187.965 9.25389H191.372C191.611 9.25389 191.795 9.30623 191.926 9.41091C192.056 9.5156 192.121 9.67813 192.121 9.89852C192.121 10.2071 191.986 10.4715 191.714 10.6919L191.653 10.7374C191.379 10.9275 190.965 11.0225 190.41 11.0225H187.965L187.965 18.5597C187.965 19.3861 188.104 19.9977 188.381 20.3944C188.658 20.7911 189.063 20.9894 189.595 20.9894C189.823 20.9894 190.035 20.9398 190.231 20.8407C190.426 20.7415 190.603 20.612 190.76 20.4522C190.918 20.2925 191.067 20.1134 191.209 19.915C191.35 19.7167 191.486 19.5184 191.616 19.32C191.725 19.2759 191.82 19.2952 191.901 19.3779C191.983 19.4605 192.018 19.6285 192.007 19.882C191.931 20.7745 191.684 21.5597 191.266 22.2374C190.847 22.915 190.28 23.444 189.563 23.8241ZM200.238 24.3944C201.618 24.3944 202.835 24.1244 203.889 23.5845C204.943 23.0445 205.763 22.3255 206.35 21.4274C206.937 20.5294 207.23 19.5404 207.23 18.4605C207.23 18.2511 207.192 18.1024 207.116 18.0142C207.04 17.9261 206.948 17.882 206.839 17.882C206.763 17.882 206.673 17.9068 206.57 17.9564C206.467 18.006 206.35 18.1024 206.22 18.2456C205.992 18.9509 205.543 19.5018 204.875 19.8985C204.207 20.2952 203.438 20.4936 202.569 20.4936C201.211 20.4936 200.124 20.028 199.309 19.0969C198.831 18.551 198.494 17.8244 198.296 16.9169L198.28 16.8407H205.731C206.202 16.8407 206.572 16.7163 206.84 16.4674L206.904 16.4026C207.176 16.1106 207.312 15.7112 207.312 15.2043C207.312 14.0363 207.037 12.9756 206.489 12.0225C205.94 11.0693 205.155 10.3145 204.134 9.75802C203.112 9.20155 201.895 8.92331 200.483 8.92331C198.82 8.92331 197.397 9.25389 196.212 9.91504C195.028 10.5762 194.123 11.4991 193.499 12.6836C192.874 13.8682 192.561 15.2484 192.561 16.8241C192.561 18.3228 192.885 19.6423 193.531 20.7828C194.178 21.9233 195.077 22.8104 196.229 23.444C197.38 24.0776 198.717 24.3944 200.238 24.3944ZM198.087 14.725C198.087 14.9985 198.094 15.2621 198.11 15.5157L198.112 15.5514H200.646C201.059 15.5514 201.265 15.32 201.265 14.8572C201.265 13.3476 201.099 12.2677 200.768 11.6175C200.436 10.9674 200.081 10.6423 199.7 10.6423C199.407 10.6423 199.141 10.7663 198.902 11.0142C198.663 11.2622 198.467 11.6836 198.315 12.2787C198.163 12.8737 198.087 13.6891 198.087 14.725ZM217.189 24.0638C217.45 24.0638 217.648 23.9949 217.784 23.8572C217.919 23.7195 217.987 23.5404 217.987 23.32C217.987 23.1327 217.939 22.9701 217.841 22.8324C217.743 22.6947 217.58 22.6093 217.352 22.5762L216.129 22.3283C215.923 22.2842 215.771 22.1712 215.673 21.9894C215.575 21.8076 215.526 21.5624 215.526 21.2539V15.4357C215.526 14.7856 215.564 14.2511 215.64 13.8324C215.716 13.4137 215.828 13.1024 215.975 12.8985C216.121 12.6947 216.292 12.5927 216.488 12.5927C216.684 12.5927 216.825 12.6644 216.912 12.8076C216.999 12.9509 217.048 13.1492 217.058 13.4026L217.075 14.0638C217.096 14.8131 217.3 15.3916 217.686 15.7993C218.072 16.2071 218.667 16.4109 219.471 16.4109C220.296 16.4109 220.97 16.1134 221.492 15.5183C222.013 14.9233 222.274 13.9922 222.274 12.725C222.274 11.4467 222.024 10.4936 221.524 9.86546C221.024 9.23736 220.307 8.92331 219.373 8.92331C218.601 8.92331 217.89 9.16298 217.238 9.64232C216.586 10.1217 216.061 10.8544 215.665 11.8407C215.599 12.005 215.538 12.1767 215.483 12.3556L215.455 12.4509L215.331 9.88199C215.302 9.57834 215.249 9.35741 215.173 9.2192L215.143 9.17124C215.051 9.03901 214.912 8.9729 214.728 8.9729C214.597 8.9729 214.44 8.99493 214.255 9.03901C214.07 9.08309 213.842 9.16022 213.57 9.27042L208.942 10.6093C208.681 10.7084 208.496 10.8269 208.387 10.9646C208.279 11.1024 208.225 11.2594 208.225 11.4357C208.225 11.59 208.26 11.7167 208.33 11.8159C208.401 11.915 208.512 12.0087 208.665 12.0969L209.088 12.1464C209.23 12.2126 209.33 12.3035 209.39 12.4192C209.45 12.5349 209.48 12.725 209.48 12.9894V21.3861C209.48 21.7167 209.452 21.9536 209.398 22.0969C209.344 22.2401 209.246 22.3448 209.105 22.4109L208.73 22.5597C208.589 22.6588 208.477 22.7663 208.396 22.882C208.314 22.9977 208.273 23.1437 208.273 23.32C208.273 23.5514 208.341 23.7332 208.477 23.8655C208.613 23.9977 208.8 24.0638 209.039 24.0638H217.189ZM234.351 23.1051C233.319 23.9977 231.836 24.444 229.902 24.444C229.25 24.444 228.709 24.3834 228.28 24.2622C227.851 24.1409 227.503 24.0197 227.237 23.8985C226.971 23.7773 226.756 23.7167 226.593 23.7167C226.43 23.7167 226.216 23.7773 225.949 23.8985L225.151 24.2622C224.884 24.3834 224.659 24.444 224.474 24.444C224.311 24.444 224.159 24.3889 224.018 24.2787C223.877 24.1685 223.768 23.9481 223.692 23.6175L223.187 20.3283C223.089 19.9095 223.073 19.5569 223.138 19.2704C223.203 18.9839 223.35 18.7966 223.578 18.7084C223.817 18.5982 224.053 18.5927 224.287 18.6919C224.52 18.7911 224.73 18.9674 224.914 19.2208C225.534 20.1795 226.093 20.9343 226.593 21.4853C227.093 22.0363 227.579 22.4247 228.052 22.6506C228.525 22.8765 229.022 22.9894 229.543 22.9894C230.097 22.9894 230.51 22.8572 230.782 22.5927C231.054 22.3283 231.189 21.9922 231.189 21.5845C231.189 21.2759 231.111 20.9949 230.953 20.7415C230.795 20.488 230.508 20.2539 230.089 20.039C229.671 19.8241 229.071 19.612 228.288 19.4026C227.082 19.0941 226.082 18.6919 225.289 18.196C224.496 17.7002 223.907 17.1051 223.521 16.4109C223.135 15.7167 222.942 14.9068 222.942 13.9812C222.942 12.9343 223.2 12.0335 223.716 11.2787C224.233 10.5239 224.939 9.94259 225.835 9.53488C226.732 9.12716 227.739 8.92331 228.859 8.92331C229.532 8.92331 230.081 8.98942 230.505 9.12166C230.929 9.25389 231.257 9.38612 231.491 9.51835C231.724 9.65058 231.901 9.7167 232.021 9.7167C232.151 9.7167 232.344 9.65334 232.599 9.52661C232.855 9.39989 233.113 9.27593 233.373 9.15471C233.634 9.0335 233.851 8.9729 234.025 8.9729C234.221 8.9729 234.378 9.03901 234.498 9.17124C234.617 9.30347 234.699 9.52937 234.742 9.84893L235.166 12.8903C235.242 13.331 235.253 13.6699 235.199 13.9068C235.144 14.1437 235.003 14.2952 234.775 14.3613C234.59 14.4054 234.395 14.3696 234.188 14.2539C233.982 14.1382 233.775 13.9536 233.569 13.7002C232.776 12.4991 232.05 11.6506 231.393 11.1547C230.736 10.6588 230.038 10.4109 229.299 10.4109C228.766 10.4109 228.364 10.5266 228.093 10.758C227.821 10.9894 227.685 11.2925 227.685 11.6671C227.685 11.9206 227.745 12.1575 227.864 12.3779C227.984 12.5982 228.204 12.8049 228.525 12.9977C228.845 13.1905 229.299 13.3806 229.885 13.5679C231.461 14.0528 232.683 14.5679 233.553 15.1134C234.422 15.6588 235.03 16.2842 235.378 16.9894C235.726 17.6947 235.9 18.5156 235.9 19.4522C235.9 20.9949 235.384 22.2126 234.351 23.1051Z" fill="white"/>
<path fill-rule="evenodd" clip-rule="evenodd" d="M14.389 4.44665C10.8746 0.935096 5.6652 0.429588 2.77627 3.32163C-0.114167 6.21218 0.391322 11.4218 3.89974 14.9348C4.83572 15.8708 5.9142 16.5863 7.05267 17.0993C7.42616 14.9288 8.49714 12.8423 10.1231 11.1293C9.58462 10.9372 9.03263 10.7752 8.45664 10.6177C5.04572 9.68173 3.35075 6.83619 2.95476 3.50014C3.28228 3.89399 3.58048 4.3071 3.8778 4.719C4.45466 5.51817 5.02821 6.31276 5.8062 6.95319C7.01644 7.94973 8.34488 8.33442 9.79821 8.75527C9.85432 8.77152 9.91062 8.78782 9.96711 8.80422C10.6556 9.00372 11.2541 9.29922 11.8031 9.64423C13.246 8.58971 14.8735 7.8877 16.5535 7.5982C16.042 6.45968 15.325 5.38266 14.389 4.44665ZM8.44614 17.9334C8.66964 15.7598 9.72261 13.6343 11.4101 11.9468C14.9245 8.43521 20.1339 7.9282 23.0228 10.8217C25.9132 13.7123 25.4093 18.9219 21.8963 22.4349C20.2089 24.1224 18.0834 25.1755 15.91 25.4005C15.6205 25.429 15.334 25.444 15.0535 25.444C13.1845 25.444 11.5151 24.7885 10.2851 23.5584C8.86913 22.1439 8.21515 20.1459 8.44614 17.9334ZM13.5865 19.7169C14.7385 18.8379 15.985 18.4899 17.3409 18.1194C20.7519 17.1833 22.4453 14.3378 22.8428 11.0017C22.5181 11.3934 22.222 11.8037 21.9269 12.2128C21.3483 13.0148 20.7731 13.8121 19.9914 14.4548C18.7774 15.453 17.4459 15.8383 15.9861 16.2608L15.8305 16.3058C12.4931 17.2748 10.8431 20.0964 10.4621 23.3799C10.7909 22.9849 11.092 22.5748 11.3916 22.1669C12.042 21.2814 12.6849 20.406 13.5865 19.7169Z" fill="#0E8784"/>
</svg>
